<svg width="73" height="73" viewBox="0 0 73 73" fill="none" xmlns="http://www.w3.org/2000/svg">
<g clip-path="url(#clip0_19_4340)">
<path d="M49.4777 5.72321C49.4777 5.72321 48.4464 5.28125 46.3839 4.39732C44.3214 3.5134 41.0268 3.07143 36.5 3.07143C31.9732 3.07143 27.6473 3.95536 23.5223 5.72321C19.3973 7.49107 15.8415 9.86831 12.8549 12.8549C9.8683 15.8415 7.49107 19.3973 5.72321 23.5223C3.95536 27.6473 3.07143 31.9732 3.07143 36.5C3.07143 41.0268 3.95536 45.3527 5.72321 49.4777C7.49107 53.6027 9.8683 57.1585 12.8549 60.1451C15.8415 63.1317 19.3973 65.5089 23.5223 67.2768C27.6473 69.0446 31.9732 69.9286 36.5 69.9286C41.0268 69.9286 45.3527 69.0446 49.4777 67.2768C53.6027 65.5089 57.1585 63.1317 60.1451 60.1451C63.1317 57.1585 65.5089 53.6027 67.2768 49.4777C69.0446 45.3527 69.9286 41.0268 69.9286 36.5C69.9286 31.9732 69.0446 27.6473 67.2768 23.5223C65.5089 19.3973 63.1317 15.8415 60.1451 12.8549C57.1585 9.86831 53.6027 7.49107 49.4777 5.72321ZM22.5179 3.35268C22.5179 3.35268 23.6295 2.87724 25.8527 1.92634C28.0759 0.975449 31.625 0.5 36.5 0.5C41.375 0.5 46.0357 1.4509 50.4821 3.35268C54.9286 5.25446 58.7589 7.8125 61.9732 11.0268C65.1875 14.2411 67.7455 18.0714 69.6473 22.5179C71.5491 26.9643 72.5 31.625 72.5 36.5C72.5 41.375 71.5491 46.0357 69.6473 50.4821C67.7455 54.9286 65.1875 58.7589 61.9732 61.9732C58.7589 65.1875 54.9286 67.7455 50.4821 69.6473C46.0357 71.5491 41.375 72.5 36.5 72.5C31.625 72.5 26.9643 71.5491 22.5179 69.6473C18.0714 67.7455 14.2411 65.1875 11.0268 61.9732C7.8125 58.7589 5.25446 54.9286 3.35268 50.4821C1.45089 46.0357 0.5 41.375 0.5 36.5C0.5 31.625 1.45089 26.9643 3.35268 22.5179C5.25446 18.0714 7.8125 14.2411 11.0268 11.0268C14.2411 7.8125 18.0714 5.25446 22.5179 3.35268ZM20.4286 33.9286C20.8571 33.9286 21.0714 34.1429 21.0714 34.5714V53.8571C21.0714 54.2857 20.8571 54.5 20.4286 54.5H19.1429C18.7143 54.5 18.5 54.2857 18.5 53.8571V34.5714C18.5 34.1429 18.7143 33.9286 19.1429 33.9286H20.4286ZM32.8638 38.0067C32.8638 38.0067 33.115 37.7556 33.6172 37.2533C34.1194 36.7511 35.0804 36.5 36.5 36.5C37.9196 36.5 39.1317 37.0022 40.1362 38.0067C41.1406 39.0112 41.6429 40.2232 41.6429 41.6429C41.6429 42.5804 41.4085 43.4375 40.9397 44.2143C40.471 44.9911 39.8482 45.6071 39.0714 46.0625V50.6429C39.0714 51.0179 38.9509 51.3259 38.7098 51.567C38.4688 51.808 38.1607 51.9286 37.7857 51.9286H35.2143C34.8393 51.9286 34.5312 51.808 34.2902 51.567C34.0491 51.3259 33.9286 51.0179 33.9286 50.6429V46.0625C33.1518 45.6071 32.529 44.9911 32.0603 44.2143C31.5915 43.4375 31.3571 42.5804 31.3571 41.6429C31.3571 40.2232 31.8594 39.0112 32.8638 38.0067ZM21.0112 9.78125C21.0112 9.78125 22.1931 9.09152 24.5569 7.71205C26.9208 6.33259 30.9018 5.64286 36.5 5.64286C42.0982 5.64286 47.2612 7.02232 51.9888 9.78125C56.7165 12.5402 60.4598 16.2835 63.2188 21.0112C65.9777 25.7388 67.3571 30.9018 67.3571 36.5C67.3571 42.0982 65.9777 47.2612 63.2188 51.9888C60.4598 56.7165 56.7165 60.4598 51.9888 63.2188C47.2612 65.9777 42.0982 67.3571 36.5 67.3571C30.9018 67.3571 25.7388 65.9777 21.0112 63.2188C16.2835 60.4598 12.5402 56.7165 9.78125 51.9888C7.02232 47.2612 5.64286 42.0982 5.64286 36.5C5.64286 30.9018 7.02232 25.7388 9.78125 21.0112C12.5402 16.2835 16.2835 12.5402 21.0112 9.78125ZM22.3571 24.9286V28.7857C22.3571 29.1607 22.4777 29.4688 22.7188 29.7098C22.9598 29.9509 23.2679 30.0714 23.6429 30.0714H26.2143C26.5893 30.0714 26.8973 29.9509 27.1384 29.7098C27.3795 29.4688 27.5 29.1607 27.5 28.7857V24.9286C27.5 22.4375 28.3772 20.3147 30.1317 18.5603C31.8862 16.8058 34.0089 15.9286 36.5 15.9286C38.9911 15.9286 41.1138 16.8058 42.8683 18.5603C44.6228 20.3147 45.5 22.4375 45.5 24.9286V28.7857C45.5 29.1607 45.6205 29.4688 45.8616 29.7098C46.1027 29.9509 46.4107 30.0714 46.7857 30.0714H49.3571C49.7321 30.0714 50.0402 29.9509 50.2812 29.7098C50.5223 29.4688 50.6429 29.1607 50.6429 28.7857V24.9286C50.6429 21.0179 49.2634 17.683 46.5045 14.9241C43.7455 12.1652 40.4107 10.7857 36.5 10.7857C32.5893 10.7857 29.2545 12.1652 26.4955 14.9241C23.7366 17.683 22.3571 21.0179 22.3571 24.9286ZM57.0714 54.5V33.9286C57.0714 33.2321 56.817 32.6295 56.308 32.1205C55.7991 31.6116 55.1964 31.3571 54.5 31.3571H18.5C17.8036 31.3571 17.2009 31.6116 16.692 32.1205C16.183 32.6295 15.9286 33.2321 15.9286 33.9286V54.5C15.9286 55.1964 16.183 55.7991 16.692 56.308C17.2009 56.817 17.8036 57.0714 18.5 57.0714H54.5C55.1964 57.0714 55.7991 56.817 56.308 56.308C56.817 55.7991 57.0714 55.1964 57.0714 54.5Z" fill="#0F5499"/>
</g>
<defs>
<clipPath id="clip0_19_4340">
<rect width="72" height="72" fill="white" transform="matrix(1 0 0 -1 0.5 72.5)"/>
</clipPath>
</defs>
</svg>
