<svg width="62" height="72" viewBox="0 0 62 72" fill="none" xmlns="http://www.w3.org/2000/svg">
<g clip-path="url(#clip0_19_4348)">
<path d="M36.1426 21.8572V39.8572C36.1426 40.2322 36.022 40.5402 35.781 40.7813C35.5399 41.0224 35.2319 41.1429 34.8569 41.1429H21.9997C21.6247 41.1429 21.3167 41.0224 21.0756 40.7813C20.8345 40.5402 20.714 40.2322 20.714 39.8572V37.2857C20.714 36.9107 20.8345 36.6027 21.0756 36.3616C21.3167 36.1206 21.6247 36 21.9997 36H30.9997V21.8572C30.9997 21.4822 31.1203 21.1741 31.3613 20.9331C31.6024 20.692 31.9104 20.5715 32.2854 20.5715H34.8569C35.2319 20.5715 35.5399 20.692 35.781 20.9331C36.022 21.1741 36.1426 21.4822 36.1426 21.8572ZM49.9238 46.9688C49.9238 46.9688 50.4127 46.1317 51.3903 44.4576C52.368 42.7835 52.8569 39.9643 52.8569 36C52.8569 32.0358 51.8792 28.3795 49.9238 25.0313C47.9685 21.6831 45.3167 19.0313 41.9685 17.0759C38.6203 15.1206 34.964 14.1429 30.9997 14.1429C27.0354 14.1429 23.3792 15.1206 20.031 17.0759C16.6828 19.0313 14.031 21.6831 12.0756 25.0313C10.1203 28.3795 9.14258 32.0358 9.14258 36C9.14258 39.9643 10.1203 43.6206 12.0756 46.9688C14.031 50.317 16.6828 52.9688 20.031 54.9241C23.3792 56.8795 27.0354 57.8572 30.9997 57.8572C34.964 57.8572 38.6203 56.8795 41.9685 54.9241C45.3167 52.9688 47.9685 50.317 49.9238 46.9688ZM57.7185 20.5112C57.7185 20.5112 58.4082 21.6931 59.7877 24.057C61.1671 26.4208 61.8569 30.4018 61.8569 36C61.8569 41.5982 60.4774 46.7612 57.7185 51.4889C54.9595 56.2166 51.2162 59.9599 46.4886 62.7188C41.7609 65.4777 36.5979 66.8572 30.9997 66.8572C25.4015 66.8572 20.2386 65.4777 15.5109 62.7188C10.7832 59.9599 7.0399 56.2166 4.28097 51.4889C1.52204 46.7612 0.142578 41.5982 0.142578 36C0.142578 30.4018 1.52204 25.2389 4.28097 20.5112C7.0399 15.7835 10.7832 12.0402 15.5109 9.28128C20.2386 6.52236 25.4015 5.14289 30.9997 5.14289C36.5979 5.14289 41.7609 6.52236 46.4886 9.28128C51.2162 12.0402 54.9595 15.7835 57.7185 20.5112Z" fill="#0F5499"/>
</g>
<defs>
<clipPath id="clip0_19_4348">
<rect width="61.7188" height="72" fill="white" transform="matrix(1 0 0 -1 0.140625 72)"/>
</clipPath>
</defs>
</svg>
