<svg width="78" height="62" viewBox="0 0 78 62" fill="none" xmlns="http://www.w3.org/2000/svg">
<path d="M70.7211 0.142891C72.489 0.142891 74.0024 0.772358 75.2613 2.03128C76.5202 3.29021 77.1497 4.80361 77.1497 6.57146V55.4286C77.1497 57.1965 76.5202 58.7099 75.2613 59.9688C74.0024 61.2277 72.489 61.8572 70.7211 61.8572H6.43541C4.66755 61.8572 3.15416 61.2277 1.89523 59.9688C0.6363 58.7099 0.00683594 57.1965 0.00683594 55.4286V6.57146C0.00683594 4.80361 0.6363 3.29021 1.89523 2.03128C3.15416 0.772358 4.66755 0.142891 6.43541 0.142891H70.7211ZM6.43541 5.28575C6.08719 5.28575 5.78585 5.41298 5.53139 5.66745C5.27693 5.92191 5.14969 6.22325 5.14969 6.57146V15.5715H72.0068V6.57146C72.0068 6.22325 71.8796 5.92191 71.6251 5.66745C71.3707 5.41298 71.0693 5.28575 70.7211 5.28575H6.43541ZM70.7211 56.7143C71.0693 56.7143 71.3707 56.5871 71.6251 56.3326C71.8796 56.0782 72.0068 55.7768 72.0068 55.4286V31H5.14969V55.4286C5.14969 55.7768 5.27693 56.0782 5.53139 56.3326C5.78585 56.5871 6.08719 56.7143 6.43541 56.7143H70.7211ZM10.2926 51.5715V46.4286H20.5783V51.5715H10.2926ZM25.7211 51.5715V46.4286H41.1497V51.5715H25.7211Z" fill="#0F5499"/>
</svg>
